# File created by Blade
# Date/Time:  Mon Nov 15 14:44:42 2010
#---------------------------------------------------------
:version 1.10
:name HOM
:units
  mass 1.0
  length 1.000000
  angle deg
:documentation
     Acclaim Skeleton File
:root
   axis xyz
   order TX TY TZ RX RY RZ
   position 0.000000 0.000000 0.000000
   orientation 0 0 0
:bonedata
   begin
      id 1
      name LeftUpLeg_dum
      direction 1.000000 0.000000 0.000000
      length 4.719518
      axis 0.0 0.0 0.0 xyz
   end
   begin
      id 2
      name RightUpLeg_dum
      direction -1.000000 0.000000 0.000000
      length 4.719518
      axis 0.0 0.0 0.0 xyz
   end
   begin
      id 3
      name Spine_dum
      direction 0.000000 1.000000 0.000000
      length 0.039370
      axis 0.0 0.0 0.0 xyz
   end
   begin
      id 4
      name LeftUpLeg
      direction 0.000000 -1.000000 0.000000
      length 19.141694
      axis 0.0 0.0 0.0 xyz
      dof rx ry rz
   end
   begin
      id 5
      name LeftLeg
      direction 0.000000 -1.000000 0.000000
      length 19.555040
      axis 0.0 0.0 0.0 xyz
      dof rx ry rz
   end
   begin
      id 6
      name LeftFoot
      direction 0.000000 -0.258819 0.965926
      length 6.929396
      axis 15.0 0.0 0.0 xyz
      dof rx ry rz
   end
   begin
      id 7
      name LeftToeBase
      direction 0.000000 0.000000 1.000000
      length 2.952750
      axis 0.0 0.0 0.0 xyz
      dof rx ry rz
   end
   begin
      id 8
      name RightUpLeg
      direction 0.000000 -1.000000 0.000000
      length 19.141694
      axis 0.0 0.0 0.0 xyz
      dof rx ry rz
   end
   begin
      id 9
      name RightLeg
      direction 0.000000 -1.000000 0.000000
      length 19.555040
      axis 0.0 0.0 0.0 xyz
      dof rx ry rz
   end
   begin
      id 10
      name RightFoot
      direction 0.000000 -0.258819 0.965926
      length 6.929396
      axis 15.0 0.0 0.0 xyz
      dof rx ry rz
   end
   begin
      id 11
      name RightToeBase
      direction 0.000000 0.000000 1.000000
      length 2.952750
      axis 0.0 0.0 0.0 xyz
      dof rx ry rz
   end
   begin
      id 12
      name Spine
      direction 0.000000 1.000000 0.000000
      length 11.965764
      axis 0.0 0.0 0.0 xyz
      dof rx ry rz
   end
   begin
      id 13
      name Spine1
      direction 0.000000 1.000000 0.000000
      length 0.000000
      axis 0.0 0.0 0.0 xyz
      dof rx ry rz
   end
   begin
      id 14
      name Spine1_dum1
      direction 0.000000 1.000000 0.000000
      length 9.788721
      axis 0.0 0.0 0.0 xyz
   end
   begin
      id 15
      name Spine1_dum2
      direction 0.000000 1.000000 0.000000
      length 9.788721
      axis 0.0 0.0 0.0 xyz
   end
   begin
      id 16
      name Spine1_dum3
      direction 0.000000 1.000000 0.000000
      length 9.788721
      axis 0.0 0.0 0.0 xyz
   end
   begin
      id 17
      name Neck
      direction 0.000000 1.000000 0.000000
      length 7.029632
      axis 0.0 0.0 0.0 xyz
      dof rx ry rz
   end
   begin
      id 18
      name Head
      direction 0.000000 1.000000 0.000000
      length 4.527550
      axis 0.0 0.0 0.0 xyz
      dof rx ry rz
   end
   begin
      id 19
      name LeftShoulder
      direction 1.000000 -0.000004 0.000000
      length 9.320257
      axis 0.0 0.0 -90.0 xyz
      dof rx ry rz
   end
   begin
      id 20
      name LeftArm
      direction 1.000000 -0.000004 0.000000
      length 12.801352
      axis 0.0 0.0 -90.0 xyz
      dof rx ry rz
   end
   begin
      id 21
      name LeftForeArm
      direction 1.000000 -0.000004 0.000000
      length 11.278127
      axis 0.0 0.0 -90.0 xyz
      dof rx ry rz
   end
   begin
      id 22
      name LeftHand
      direction 0.000000 0.000000 0.000000
      length 0.000000
      axis 0.0 0.0 -90.0 xyz
      dof rx ry rz
   end
   begin
      id 23
      name LeftHand_dum1
      direction 0.000000 0.000000 0.000000
      length 0.000000
      axis 0.0 0.0 -90.0 xyz
   end
   begin
      id 24
      name LeftHand_dum2
      direction 1.000000 -0.000004 0.000000
      length 3.937000
      axis 0.0 0.0 -90.0 xyz
   end
   begin
      id 25
      name LeftHandThumb
      direction 0.000000 0.000000 1.000000
      length 3.937000
      axis 0.0 0.0 -90.0 xyz
      dof rx ry rz
   end
   begin
      id 26
      name RightShoulder
      direction -1.000000 -0.000004 0.000000
      length 9.320257
      axis 0.0 0.0 90.0 xyz
      dof rx ry rz
   end
   begin
      id 27
      name RightArm
      direction -1.000000 -0.000004 0.000000
      length 12.801352
      axis 0.0 0.0 90.0 xyz
      dof rx ry rz
   end
   begin
      id 28
      name RightForeArm
      direction -1.000000 -0.000004 0.000000
      length 11.278127
      axis 0.0 0.0 90.0 xyz
      dof rx ry rz
   end
   begin
      id 29
      name RightHand
      direction 0.000000 0.000000 0.000000
      length 0.000000
      axis 0.0 0.0 90.0 xyz
      dof rx ry rz
   end
   begin
      id 30
      name RightHand_dum1
      direction 0.000000 0.000000 0.000000
      length 0.000000
      axis 0.0 0.0 90.0 xyz
   end
   begin
      id 31
      name RightHand_dum2
      direction -1.000000 -0.000004 0.000000
      length 5.393690
      axis 0.0 0.0 90.0 xyz
   end
   begin
      id 32
      name RightHandThumb
      direction 0.000000 0.000000 1.000000
      length 3.937000
      axis 0.0 0.0 90.0 xyz
      dof rx ry rz
   end
:hierarchy
   begin
      root LeftUpLeg_dum RightUpLeg_dum Spine_dum
      LeftUpLeg_dum LeftUpLeg
      RightUpLeg_dum RightUpLeg
      Spine_dum Spine
      LeftUpLeg LeftLeg
      LeftLeg LeftFoot
      LeftFoot LeftToeBase
      RightUpLeg RightLeg
      RightLeg RightFoot
      RightFoot RightToeBase
      Spine Spine1
      Spine1 Spine1_dum1 Spine1_dum2 Spine1_dum3
      Spine1_dum1 Neck
      Spine1_dum2 LeftShoulder
      Spine1_dum3 RightShoulder
      Neck Head
      LeftShoulder LeftArm
      LeftArm LeftForeArm
      LeftForeArm LeftHand
      LeftHand LeftHand_dum1 LeftHand_dum2
      LeftHand_dum1 LeftHandThumb
      RightShoulder RightArm
      RightArm RightForeArm
      RightForeArm RightHand
      RightHand RightHand_dum1 RightHand_dum2
      RightHand_dum1 RightHandThumb
   end

# File created by Blade
# Date/Time:  Mon Nov 15 14:56:25 2010
# Frame Rate: 200.000 fps
#------------------------------------------------------
:FULLY-SPECIFIED
:DEGREES
768
root  1.265649 40.826834 98.599883 -21.844366 1.733614 -0.153299
LeftUpLeg  6.213710 -1.182459 -1.336129
LeftLeg  15.878951 -0.000000 0.000000
LeftFoot  8.078758 13.581178 -1.729759
LeftToeBase  -19.710304 0.000000 -0.000000
RightUpLeg  9.349416 -18.471691 -1.541144
RightLeg  12.709600 -0.000000 0.000000
RightFoot  3.437871 -1.503053 -17.297890
RightToeBase  -24.296481 0.000000 -0.000000
Spine  14.495278 -2.285226 1.751261
Spine1  3.488197 0.614826 -3.686495
Neck  14.505820 -4.272870 -1.442492
Head  -20.129179 -5.480435 3.432784
LeftShoulder  -7.441783 12.511768 -0.617638
LeftArm  19.481606 0.833311 -85.158870
LeftForeArm  11.873861 -0.000000 0.000000
LeftHand  -7.529140 12.628178 -9.512182
LeftHandThumb  0.000000 -0.000000 0.000000
RightShoulder  -6.794903 -9.594793 -0.473807
RightArm  18.778861 -22.264297 77.506261
RightForeArm  27.262029 -0.000000 0.000000
RightHand  4.149501 11.400696 7.773815
RightHandThumb  0.000000 -0.000000 0.000000
769
root  1.260559 40.835081 98.707502 -21.817132 1.555743 -0.223245
LeftUpLeg  6.384500 -1.345423 -1.272315
LeftLeg  15.934683 -0.000000 0.000000
LeftFoot  7.645330 13.794109 -1.910318
LeftToeBase  -19.776704 0.000000 -0.000000
RightUpLeg  9.596212 -18.531644 -1.506294
RightLeg  12.501601 -0.000000 0.000000
RightFoot  3.279442 -1.285469 -17.264044
RightToeBase  -24.321459 0.000000 -0.000000
Spine  14.457885 -2.226554 1.722127
Spine1  3.470568 0.656942 -3.549455
Neck  14.517104 -4.242053 -1.445643
Head  -20.136210 -5.425250 3.329856
LeftShoulder  -7.534818 12.207658 -0.468398
LeftArm  19.986592 -0.937944 -85.765020
LeftForeArm  10.151747 -0.000000 0.000000
LeftHand  -7.693909 15.605737 -9.599032
LeftHandThumb  0.000000 -0.000000 0.000000
RightShoulder  -6.766078 -9.618471 -0.394400
RightArm  18.930116 -21.945824 77.212028
RightForeArm  27.068741 -0.000000 0.000000
RightHand  3.847619 11.492576 7.993945
RightHandThumb  0.000000 -0.000000 0.000000
770
root  1.255531 40.846309 98.814468 -21.748344 1.382004 -0.237174
LeftUpLeg  6.590900 -1.338649 -1.247304
LeftLeg  15.755846 -0.000000 0.000000
LeftFoot  7.568572 13.961640 -1.632167
LeftToeBase  -19.648821 0.000000 -0.000000
RightUpLeg  9.808096 -18.282971 -1.420009
RightLeg  12.212564 -0.000000 0.000000
RightFoot  3.240754 -1.347736 -17.292836
RightToeBase  -24.282607 0.000000 -0.000000
Spine  14.391567 -2.138921 1.684552
Spine1  3.434562 0.723302 -3.476560
Neck  14.546438 -4.263299 -1.431652
Head  -20.176718 -5.364205 3.242824
LeftShoulder  -7.667083 12.079436 -0.399361
LeftArm  20.422263 -1.720077 -85.767238
LeftForeArm  9.106914 -0.000000 0.000000
LeftHand  -7.169349 16.122854 -8.926938
LeftHandThumb  0.000000 -0.000000 0.000000
RightShoulder  -6.766859 -9.626637 -0.292949
RightArm  19.023727 -21.572519 76.940174
RightForeArm  26.782125 -0.000000 0.000000
RightHand  3.702430 11.317751 8.370235
RightHandThumb  0.000000 -0.000000 0.000000
771
root  1.253461 40.856915 98.916568 -21.679518 1.208282 -0.251310
LeftUpLeg  6.797304 -1.331965 -1.222270
LeftLeg  15.577010 -0.000000 0.000000
LeftFoot  7.492597 14.129531 -1.354043
LeftToeBase  -19.520937 0.000000 -0.000000
RightUpLeg  10.020072 -18.034603 -1.332881
RightLeg  11.923527 -0.000000 0.000000
RightFoot  3.202097 -1.410023 -17.321587
RightToeBase  -24.243755 0.000000 -0.000000
Spine  14.325196 -2.051333 1.646877
Spine1  3.398640 0.789707 -3.403706
Neck  14.575767 -4.284553 -1.417671
Head  -20.217315 -5.303222 3.155757
LeftShoulder  -7.799442 11.951370 -0.330053
LeftArm  20.858183 -2.502171 -85.775409
LeftForeArm  8.062081 -0.000000 0.000000
LeftHand  -6.637110 16.633986 -8.248156
LeftHandThumb  0.000000 -0.000000 0.000000
RightShoulder  -6.767655 -9.634800 -0.191496
RightArm  19.115199 -21.198807 76.669669
RightForeArm  26.495510 -0.000000 0.000000
RightHand  3.556160 11.143865 8.746748
RightHandThumb  0.000000 -0.000000 0.000000
772
root  1.259972 40.861099 99.003784 -21.622432 1.136821 -0.255704
LeftUpLeg  6.878301 -1.279236 -1.210370
LeftLeg  15.541756 -0.000000 0.000000
LeftFoot  7.599809 14.275831 -1.099544
LeftToeBase  -19.096081 0.000000 -0.000000
RightUpLeg  10.074906 -18.049697 -1.373782
RightLeg  12.003332 -0.000000 0.000000
RightFoot  2.922528 -1.312999 -17.172005
RightToeBase  -24.223959 0.000000 -0.000000
Spine  14.323078 -2.053492 1.630688
Spine1  3.305686 0.776779 -3.389908
Neck  14.503343 -4.202803 -1.438816
Head  -20.023502 -5.257945 3.019771
LeftShoulder  -7.814142 11.636698 -0.192626
LeftArm  20.703454 -2.475475 -85.332869
LeftForeArm  7.679826 -0.000000 0.000000
LeftHand  -6.418498 16.343132 -7.720129
LeftHandThumb  0.000000 -0.000000 0.000000
RightShoulder  -6.802129 -9.603445 -0.178103
RightArm  19.255654 -20.816067 76.477611
RightForeArm  26.026563 -0.000000 0.000000
RightHand  3.486881 10.777976 9.037478
RightHandThumb  0.000000 -0.000000 0.000000
773
root  1.266041 40.868223 99.093849 -21.565341 1.065364 -0.260169
LeftUpLeg  6.959309 -1.226525 -1.198396
LeftLeg  15.506502 -0.000000 0.000000
LeftFoot  7.707762 14.421667 -0.844596
LeftToeBase  -18.671226 0.000000 -0.000000
RightUpLeg  10.129756 -18.064754 -1.414701
RightLeg  12.083138 -0.000000 0.000000
RightFoot  2.643224 -1.215247 -17.022904
RightToeBase  -24.204164 0.000000 -0.000000
Spine  14.320962 -2.055651 1.614499
Spine1  3.212729 0.763873 -3.376089
Neck  14.430897 -4.121081 -1.460062
Head  -19.829812 -5.212211 2.883949
LeftShoulder  -7.829594 11.322062 -0.055270
LeftArm  20.548939 -2.447586 -84.890412
LeftForeArm  7.297571 -0.000000 0.000000
LeftHand  -6.203008 16.050361 -7.194042
LeftHandThumb  0.000000 -0.000000 0.000000
RightShoulder  -6.836592 -9.572082 -0.164730
RightArm  19.394387 -20.432891 76.287037
RightForeArm  25.557617 -0.000000 0.000000
RightHand  3.415797 10.412437 9.328310
RightHandThumb  0.000000 -0.000000 0.000000
774
root  1.260918 40.889389 99.209529 -21.499576 0.836814 -0.285421
LeftUpLeg  7.473343 -0.716464 -1.032282
LeftLeg  14.639490 -0.000000 0.000000
LeftFoot  8.486222 14.453207 0.465496
LeftToeBase  -19.481588 0.000000 -0.000000
RightUpLeg  10.466913 -17.849950 -1.315474
RightLeg  11.551649 -0.000000 0.000000
RightFoot  2.803953 -1.192493 -17.107639
RightToeBase  -24.346436 0.000000 -0.000000
Spine  14.146353 -1.888410 1.553930
Spine1  3.341832 0.905282 -3.159696
Neck  14.454476 -3.999169 -1.575185
Head  -19.936643 -5.380065 3.044700
LeftShoulder  -8.013162 11.403909 -0.179201
LeftArm  20.960634 -2.043857 -84.190896
LeftForeArm  7.037375 -0.000000 0.000000
LeftHand  -6.240075 15.759194 -7.015577
LeftHandThumb  0.000000 -0.000000 0.000000
RightShoulder  -6.890245 -9.582138 -0.162577
RightArm  19.377145 -19.864056 76.059817
RightForeArm  25.318965 -0.000000 0.000000
RightHand  3.546452 10.477802 9.131439
RightHandThumb  0.000000 -0.000000 0.000000
